<svg width="166" height="25" fill="none" xmlns="http://www.w3.org/2000/svg">
  <path d="M23 18.7h2.8V5.17H23V18.7ZM24.4 0c-.92 0-1.65.7-1.65 1.54 0 .88.73 1.57 1.65 1.57.88 0 1.63-.7 1.63-1.57A1.6 1.6 0 0 0 24.4 0Zm10.17 10.76c-2.3-.4-2.9-1-2.9-1.74 0-.5.36-1.42 2.25-1.42 1.11 0 2.26.58 2.59 1.51l2.65-.87c-.23-.84-1.6-3.25-5.25-3.25-3.93 0-5.43 2.7-5.04 4.82.35 2.05 2.03 2.86 4.77 3.4 2.21.41 3.07.81 3.16 1.45.12.76-.62 1.63-2.5 1.63-1.92 0-2.87-.84-3.2-1.68l-2.64.88c.67 1.86 2.72 3.45 5.96 3.45 3.24 0 5.46-1.93 5.21-4.57-.17-2.12-1.82-3.05-5.06-3.61Zm14.89-5.77c-1.83 0-3.3.62-4.34 1.66V5.18H42.3V24.8h2.83v-7.56a5.94 5.94 0 0 0 4.34 1.65c4.12 0 6.6-3.13 6.6-6.95 0-3.82-2.47-6.95-6.6-6.95Zm-.32 11.23c-2.59 0-3.89-1.96-3.89-4.28 0-2.32 1.32-4.29 3.9-4.29 2.52 0 3.86 1.97 3.86 4.29 0 2.32-1.31 4.28-3.87 4.28ZM73.9 4.99c-1.9 0-3.37.82-4.34 2.22-.92-1.46-2.42-2.22-4.4-2.22-1.38 0-2.47.48-3.33 1.26V5.18h-2.8V18.7h2.8v-7.54c0-2.52 1.14-3.5 2.89-3.5 1.65 0 2.97 1.04 2.97 3.68v7.37h2.8v-7.54c0-2.52 1.24-3.5 2.98-3.5 1.62 0 2.85 1.04 2.85 3.68v7.37h2.84v-7.62c0-3.91-1.91-6.1-5.27-6.1Zm14.33-.03c-3.68 0-5.4 2.3-5.75 4l2.53.51c.42-1.42 1.6-2.07 3.01-2.13 1.21-.08 2.8.51 2.6 1.83-.16.95-1.71 1.06-3.55 1.5-2.91.74-4.86 1.52-5.19 4.18-.26 2.22 1.54 4.32 4.87 4.04 2.2-.2 3.41-1.2 3.95-1.79v1.6h2.77V9.92c.01-3.6-2.26-4.96-5.24-4.96Zm2.48 7.96c0 2.13-2.13 3.45-3.57 3.56-1.57.1-2.1-.45-2.18-1.06-.1-.54.05-1.68 2.59-2.3 1.88-.45 3.16-.79 3.16-.79v.59Zm12.7-7.93a5.1 5.1 0 0 0-3.65 1.49v-1.3h-2.8V18.7h2.8v-7.54c0-2.52 1.38-3.5 3.12-3.5 1.65 0 2.98 1.04 2.98 3.68v7.37h2.8v-7.62c0-3.9-1.92-6.09-5.25-6.09Zm14.29-.03c-3.69 0-5.4 2.3-5.75 4l2.53.51c.42-1.42 1.6-2.07 3-2.13 1.22-.08 2.8.51 2.6 1.83-.15.95-1.7 1.06-3.54 1.5-2.92.74-4.87 1.52-5.2 4.18-.26 2.22 1.54 4.32 4.87 4.04 2.21-.2 3.42-1.2 3.95-1.79v1.6h2.78V9.92c0-3.6-2.27-4.96-5.24-4.96Zm2.47 7.96c0 2.13-2.12 3.45-3.57 3.56-1.56.1-2.09-.45-2.18-1.06-.1-.54.06-1.68 2.6-2.3 1.88-.45 3.15-.79 3.15-.79v.59Zm16.47-6.28a5.95 5.95 0 0 0-4.34-1.66c-4.12 0-6.6 3.14-6.6 6.96s2.47 6.95 6.6 6.95c1.83 0 3.3-.62 4.34-1.65v.4c0 3.13-1.77 4.7-4.1 4.7-1.5 0-2.9-.73-3.6-1.82l-2.36 1.45a7.33 7.33 0 0 0 6.04 3.03c3.62 0 6.84-1.99 6.84-7.62V5.18h-2.83v1.46Zm-3.99 9.58c-2.56 0-3.89-1.96-3.89-4.28 0-2.32 1.3-4.29 3.9-4.29 2.56 0 3.86 1.97 3.86 4.29 0 2.32-1.33 4.28-3.87 4.28ZM149.2 5c-4.12 0-6.84 3.14-6.84 6.96 0 3.81 2.8 6.95 6.93 6.95a6.56 6.56 0 0 0 5.81-3.17l-2.57-1.18a3.69 3.69 0 0 1-3.24 1.68 3.7 3.7 0 0 1-3.77-2.95h9.9c.1-.45.12-.9.12-1.34 0-3.81-2.2-6.95-6.34-6.95Zm-3.74 5.77c.38-1.77 1.63-3.12 3.74-3.12 2.12 0 3.16 1.35 3.45 3.12h-7.19Zm19.42-5.8a5.1 5.1 0 0 0-3.66 1.49V5.18h-2.8V18.7h2.8v-7.54c0-2.52 1.42-3.5 3.13-3.5.42 0 .77.06 1.12.2l.53-2.77a6.32 6.32 0 0 0-1.12-.12Z" fill="#E6E6E6"/>
  <path d="M9.69 5.19H4.43a.55.55 0 0 0-.53.37L.02 18.03c-.1.33.16.66.53.66H5.8c.25 0 .45-.15.53-.37l3.9-12.47c.08-.33-.18-.66-.54-.66Zm8.22 0h-5.26a.55.55 0 0 0-.52.37L8.25 18.03c-.1.33.15.66.52.66h5.26c.24 0 .45-.15.52-.37l3.9-12.47c.09-.33-.17-.66-.54-.66Z" fill="#80A6FF"/>
</svg>